Coordinates
version=1
nRows=30
nColumns=38
inDegrees=no

Units are S.I. units (second, meters, Newtons, ...)
If the header above contains a line with 'inDegrees', this indicates whether rotational values are in degrees (yes) or radians (no).

endheader
time	pelvis_tilt	pelvis_list	pelvis_rotation	pelvis_tx	pelvis_ty	pelvis_tz	hip_flexion_r	hip_adduction_r	hip_rotation_r	knee_angle_r	ankle_angle_r	subtalar_angle_r	mtp_angle_r	hip_flexion_l	hip_adduction_l	hip_rotation_l	knee_angle_l	ankle_angle_l	subtalar_angle_l	mtp_angle_l	lumbar_extension	lumbar_bending	lumbar_rotation	arm_flex_r	arm_add_r	arm_rot_r	elbow_flex_r	pro_sup_r	wrist_flex_r	wrist_dev_r	arm_flex_l	arm_add_l	arm_rot_l	elbow_flex_l	pro_sup_l	wrist_flex_l	wrist_dev_l
1.29	2.64185	1.51916	-0.997353	0.5308	0.53409	0.938747	0.0663972	0.0432696	-0.234775	0.239986	0.128812	0	0	0.3257	-0.176606	-0.0616016	1.32984	0.128431	0	0	-0.148856	0.0234918	-0.0837196	-0.235211	-0.241839	0.0733399	0.703562	0.455443	0	0	-0.132078	-0.310876	0.168677	0.712268	1.35553	0	0
1.3	2.74672	1.52101	-1.1082	0.531785	0.543771	0.939979	0.0466525	0.0408287	-0.228999	0.225274	0.130701	0	0	0.34437	-0.171065	-0.0733008	1.31632	0.141278	0	0	-0.151613	0.0164081	-0.0763563	-0.237457	-0.242686	0.075579	0.705649	0.451885	0	0	-0.132836	-0.309968	0.166727	0.715801	1.36039	0	0
1.31	2.85986	1.52146	-1.22779	0.532783	0.5534	0.941128	0.0262293	0.0384206	-0.221745	0.210653	0.131803	0	0	0.360778	-0.166273	-0.0866664	1.29892	0.152447	0	0	-0.155373	0.00948709	-0.0686441	-0.239274	-0.243532	0.0768535	0.708242	0.44938	0	0	-0.133288	-0.309337	0.16555	0.719009	1.36139	0	0
1.32	2.97198	1.52059	-1.34651	0.533719	0.56299	0.942183	0.0054101	0.0357896	-0.214049	0.196349	0.132664	0	0	0.375033	-0.1621	-0.10159	1.27783	0.162258	0	0	-0.159841	0.00282277	-0.0609605	-0.240402	-0.244213	0.0766462	0.710606	0.448235	0	0	-0.133381	-0.308772	0.164568	0.72144	1.35984	0	0
1.33	3.07564	1.51897	-1.45652	0.534573	0.572548	0.94308	-0.0153803	0.0329908	-0.206217	0.182334	0.133899	0	0	0.387821	-0.158286	-0.117248	1.25339	0.171371	0	0	-0.164437	-0.0036622	-0.0539316	-0.2407	-0.244762	0.0758222	0.712368	0.448517	0	0	-0.133529	-0.30828	0.163622	0.723659	1.35563	0	0
1.34	-3.11868	1.5167	-1.55147	0.535367	0.582046	0.943793	-0.036489	0.0304844	-0.197655	0.167788	0.135388	0	0	0.399214	-0.155207	-0.13374	1.22549	0.180064	0	0	-0.169186	-0.00967176	-0.0476042	-0.240251	-0.245514	0.0753347	0.714286	0.45025	0	0	-0.133587	-0.307951	0.163153	0.725573	1.34769	0	0
1.35	-3.04893	1.51356	-1.62754	0.536167	0.591529	0.944351	-0.0589109	0.0287465	-0.186654	0.151601	0.135596	0	0	0.408484	-0.15382	-0.152388	1.19421	0.189336	0	0	-0.174578	-0.0150931	-0.0411609	-0.239387	-0.246003	0.0733357	0.717043	0.455661	0	0	-0.133362	-0.308948	0.168235	0.727607	1.31761	0	0
1.36	-3.00756	1.51067	-1.67564	0.536972	0.601179	0.944588	-0.0803769	0.0278243	-0.178022	0.13714	0.137257	0	0	0.416852	-0.160629	-0.1821	1.1618	0.198103	0	0	-0.179106	-0.0192286	-0.0349672	-0.238091	-0.247037	0.0728684	0.720429	0.456204	0	0	-0.134094	-0.308562	0.166821	0.728252	1.31178	0	0
1.37	-2.95545	1.5084	-1.73309	0.537551	0.610627	0.944645	-0.100031	0.0254447	-0.172329	0.124378	0.139906	0	0	0.423831	-0.162314	-0.207457	1.1233	0.206227	0	0	-0.183101	-0.0241229	-0.0308621	-0.234943	-0.247467	0.0731118	0.722055	0.457222	0	0	-0.134472	-0.308361	0.165478	0.728027	1.30636	0	0
1.38	-2.90919	1.50691	-1.78367	0.537928	0.619962	0.944434	-0.118782	0.0232211	-0.166641	0.111255	0.142265	0	0	0.430925	-0.158997	-0.225417	1.08085	0.212794	0	0	-0.186332	-0.0284476	-0.0281687	-0.23094	-0.248204	0.0750585	0.723801	0.453649	0	0	-0.13463	-0.307642	0.16263	0.726394	1.30818	0	0
1.39	-2.87123	1.50605	-1.82558	0.538222	0.629245	0.943952	-0.136104	0.0213606	-0.161569	0.0996744	0.144962	0	0	0.437349	-0.155883	-0.243784	1.03492	0.217422	0	0	-0.188943	-0.0321436	-0.0260039	-0.226379	-0.248969	0.0774763	0.725406	0.450844	0	0	-0.134704	-0.307273	0.161013	0.724672	1.30688	0	0
1.4	-2.84149	1.50589	-1.85898	0.538427	0.638476	0.943198	-0.152608	0.0201619	-0.156388	0.0884156	0.148713	0	0	0.443145	-0.152994	-0.262583	0.985565	0.220243	0	0	-0.191054	-0.0351173	-0.0241306	-0.221564	-0.249637	0.0795465	0.726938	0.448586	0	0	-0.134597	-0.307102	0.160028	0.722792	1.30444	0	0
1.41	-2.82215	1.50675	-1.88148	0.538508	0.647698	0.942145	-0.167714	0.019739	-0.15241	0.0781691	0.153304	0	0	0.448789	-0.150456	-0.281368	0.933353	0.222009	0	0	-0.192369	-0.0369544	-0.0226957	-0.216931	-0.249787	0.0793929	0.728729	0.448185	0	0	-0.134515	-0.306872	0.159529	0.720607	1.3026	0	0
1.42	-2.80386	1.50779	-1.90232	0.538452	0.656975	0.940921	-0.182398	0.0192665	-0.148984	0.0685162	0.158294	0	0	0.452895	-0.146933	-0.300126	0.877003	0.222211	0	0	-0.193503	-0.0385666	-0.0219259	-0.211993	-0.249845	0.0792127	0.730223	0.449026	0	0	-0.134359	-0.306708	0.159375	0.717876	1.30185	0	0
1.43	-2.78765	1.50943	-1.92049	0.538246	0.666263	0.939502	-0.19577	0.0189363	-0.146477	0.0603522	0.163878	0	0	0.456192	-0.142675	-0.318617	0.817492	0.222018	0	0	-0.194066	-0.0397017	-0.021774	-0.20703	-0.249773	0.078546	0.731597	0.450734	0	0	-0.134032	-0.306544	0.15951	0.714364	1.30254	0	0
1.44	-2.76717	1.51172	-1.94242	0.537901	0.675564	0.937879	-0.208017	0.018591	-0.1445	0.0531893	0.169699	0	0	0.458704	-0.137245	-0.336775	0.755166	0.222075	0	0	-0.193921	-0.0407821	-0.0222413	-0.201715	-0.249992	0.0789839	0.7323	0.452328	0	0	-0.133668	-0.30642	0.159518	0.710467	1.30447	0	0
1.45	-2.74235	1.51437	-1.96807	0.537388	0.684872	0.936109	-0.219263	0.0180761	-0.14267	0.0472265	0.175842	0	0	0.460098	-0.130164	-0.353797	0.690166	0.222569	0	0	-0.193455	-0.0418076	-0.0234747	-0.19628	-0.250344	0.0803047	0.732776	0.453594	0	0	-0.133155	-0.306256	0.159562	0.70601	1.3069	0	0
1.46	-2.69468	1.51579	-2.01637	0.536696	0.694217	0.934367	-0.230363	0.0155336	-0.141577	0.0431644	0.182899	0	0	0.457542	-0.11875	-0.368335	0.618906	0.221752	0	0	-0.193783	-0.0444466	-0.0249079	-0.190901	-0.248639	0.0752166	0.732018	0.468104	0	0	-0.131808	-0.306434	0.161467	0.700455	1.30588	0	0
1.47	-2.64951	1.51846	-2.06156	0.535828	0.703629	0.932375	-0.23874	0.0137125	-0.142631	0.0424526	0.19175	0	0	0.45505	-0.106621	-0.379377	0.546393	0.223191	0	0	-0.192799	-0.0459354	-0.0269704	-0.186047	-0.248611	0.0747827	0.733227	0.467249	0	0	-0.130696	-0.305781	0.16085	0.694027	1.31401	0	0
1.48	-2.58711	1.52021	-2.12344	0.534744	0.713121	0.930368	-0.246911	0.0106115	-0.146366	0.0433946	0.202054	0	0	0.448932	-0.0903175	-0.383784	0.468069	0.222651	0	0	-0.192316	-0.0483225	-0.0295703	-0.180902	-0.248606	0.074414	0.733397	0.468763	0	0	-0.129019	-0.304796	0.16006	0.685695	1.32806	0	0
1.49	-2.42568	1.51404	-2.28302	0.533163	0.722305	0.929202	-0.257162	-0.00265348	-0.155482	0.0466614	0.213633	0	0	0.413567	-0.0432787	-0.333107	0.326619	0.192367	0	0	-0.196722	-0.0599982	-0.0351577	-0.172086	-0.246202	0.0736745	0.728161	0.472654	0	0	-0.12506	-0.304738	0.158941	0.676141	1.33977	0	0
1.5	-2.44646	1.5206	-2.26185	0.531997	0.732492	0.926313	-0.264665	0.00179135	-0.158415	0.0480905	0.224159	0	0	0.422487	-0.0466726	-0.357464	0.290082	0.205395	0	0	-0.19312	-0.0546636	-0.0360144	-0.170694	-0.248501	0.0735216	0.731494	0.479866	0	0	-0.125479	-0.302029	0.154019	0.668915	1.36317	0	0
1.51	-2.36157	1.51384	-2.34835	0.530644	0.74247	0.924966	-0.276976	-0.00954698	-0.165344	0.053038	0.235376	0	0	0.362398	-0.000759751	-0.252944	0.11135	0.14089	0	0	-0.197914	-0.0640604	-0.0374065	-0.164655	-0.247868	0.0750357	0.728495	0.477995	0	0	-0.122918	-0.302386	0.157071	0.660666	1.35783	0	0
1.52	-2.3805	1.51609	-2.33103	0.529579	0.753015	0.922576	-0.286558	-0.00923317	-0.169837	0.0580753	0.245909	0	0	0.33685	0.00892479	-0.205639	0.0165559	0.110716	0	0	-0.1977	-0.062628	-0.0368307	-0.1625	-0.249441	0.0755131	0.729959	0.480553	0	0	-0.123135	-0.30107	0.156047	0.653762	1.36521	0	0
1.53	-2.44507	1.5164	-2.26368	0.528572	0.763094	0.920322	-0.297366	-0.00469907	-0.170574	0.066487	0.253168	0	0	0.338569	0.00810371	-0.188209	0	0.102955	0	0	-0.201926	-0.0613456	-0.0386033	-0.16024	-0.250008	0.076527	0.730994	0.481835	0	0	-0.12192	-0.30123	0.1558	0.64813	1.36912	0	0
1.54	-2.51098	1.51676	-2.19732	0.527624	0.773459	0.918158	-0.307782	-0.00312026	-0.177013	0.0760615	0.262791	0	0	0.344613	0.00626934	-0.179208	0	0.104877	0	0	-0.205512	-0.0601833	-0.0391554	-0.157633	-0.250283	0.0779378	0.730982	0.482755	0	0	-0.121432	-0.301302	0.154888	0.641904	1.37363	0	0
1.55	-2.05734	1.52991	-2.65097	0.526705	0.783814	0.912849	-0.267168	-0.0122739	-0.241427	0.130065	0.308438	0	0	0.377596	0.012867	-0.171947	0	0.112757	0	0	-0.177053	-0.0676631	-0.0368399	-0.164069	-0.239927	0.0406006	0.72755	0.578125	0	0	-0.129389	-0.316884	0.218318	0.66043	1.12201	0	0
1.56	-2.51903	1.51937	-2.19103	0.525674	0.795542	0.913523	-0.316855	-0.00788993	-0.202335	0.11201	0.292589	0	0	0.352915	0.00783806	-0.160636	0	0.112711	0	0	-0.203186	-0.0632794	-0.0361665	-0.156087	-0.243357	0.0560247	0.722593	0.5558	0	0	-0.123076	-0.313312	0.209448	0.641031	1.18888	0	0
1.57	-2.56577	1.51563	-2.1479	0.524798	0.807235	0.912009	-0.330969	-0.0114017	-0.198573	0.12088	0.294905	0	0	0.345741	0.00929424	-0.153066	0	0.114605	0	0	-0.207593	-0.0662256	-0.034138	-0.154991	-0.244835	0.0640896	0.723608	0.538696	0	0	-0.124569	-0.311192	0.195189	0.632832	1.23957	0	0
1.58	-2.54933	1.51386	-2.16869	0.523834	0.819243	0.910291	-0.335078	-0.0188358	-0.203692	0.142816	0.303822	0	0	0.339493	0.0125546	-0.145087	0	0.112994	0	0	-0.207175	-0.0711427	-0.0313131	-0.154983	-0.24555	0.070876	0.72307	0.524798	0	0	-0.127054	-0.309326	0.182372	0.625465	1.27832	0	0
